<?xml version="1.0" encoding="UTF-8"?>
<svg width="210px" height="30px" viewBox="0 0 210 30" version="1.1" xmlns="http://www.w3.org/2000/svg" xmlns:xlink="http://www.w3.org/1999/xlink">
    <!-- Generator: Sketch 43.2 (39069) - http://www.bohemiancoding.com/sketch -->
    <title>Artboard</title>
    <desc>Created with Sketch.</desc>
    <defs></defs>
    <g id="Page-1" stroke="none" stroke-width="1" fill="none" fill-rule="evenodd">
        <g id="Artboard">
            <g id="AIESEC">
                <path d="M0.094,0.678 L144.086,0.678 C144.681,0.833 145.043,0.884 145.405,1.428 C146.077,0.884 146.569,0.652 147.008,0.652 C148.663,0.703 149.542,3.936 147.034,4.763 C147.034,5.487 147.887,7.815 148.508,7.995 C148.999,7.039 149.336,6.056 150.034,5.203 C150.629,3.522 149.491,0.678 151.689,0.652 C151.844,0.652 151.999,0.678 152.18,0.703 C153.938,1.298 153.654,4.117 152.025,4.789 C151.663,5.824 152.206,6.858 152.568,7.918 C152.594,8.409 152.387,10.995 153.266,11.357 C154.016,9.702 154.326,7.815 155.18,6.237 C157.584,4.194 157.481,5.151 157.429,2.048 C157.688,1.117 158.412,0.678 159.11,0.678 C159.808,0.678 160.351,1.091 160.558,1.996 C160.558,3.341 160.636,4.194 159.188,4.479 C158.722,4.841 159.576,7.66 159.989,8.202 C161.463,5.927 160.972,1.867 162.808,0.755 C163.041,0.703 163.222,0.678 163.428,0.678 C165.756,0.652 165.523,4.324 163.842,4.686 C162.937,5.591 164.437,7.918 164.799,8.849 C164.799,10.53 163.868,10.788 165.626,12.211 C166.48,12.805 168.316,13.478 168.212,14.745 C166.738,15.727 166.169,12.96 164.488,12.96 C164.488,16.219 166.169,20.123 167.592,22.994 C169.686,20.615 171.496,18.313 170.617,14.952 C170.617,13.788 171.341,12.65 171.16,11.487 C170.514,12.754 170.126,13.865 169.996,15.288 C169.557,16.865 168.031,16.141 168.911,14.822 C169.04,11.409 169.453,7.168 172.376,4.918 C172.841,4.22 172.531,3.444 172.401,2.669 C172.401,1.35 173.125,0.678 173.927,0.678 C175.142,0.678 176.513,2.1 175.22,4.143 C174.987,4.375 174.651,4.608 174.315,4.634 C174.16,4.763 173.746,10.116 174.961,10.4 C175.711,9.858 176.435,9.314 177.159,8.797 C177.392,8.797 179.59,11.745 180.133,12.417 C179.667,12.986 178.84,13.529 178.271,13.995 C178.168,14.9 177.728,15.288 176.901,15.081 C174.263,17.305 176.099,15.856 174.47,15.443 C174.47,17.512 174.341,19.684 174.289,21.83 C173.72,23.433 173.384,25.864 173.487,27.674 C174.186,28.269 174.444,28.605 175.427,28.734 C175.66,28.838 175.815,28.864 175.789,29.251 C175.634,29.355 175.142,29.458 174.522,29.458 C173.41,29.458 171.91,29.381 171.496,29.355 C171.367,28.812 171.445,28.217 171.419,27.7 C170.591,27.7 168.936,28.631 168.109,28.967 C167.411,28.605 167.85,27.105 167.023,26.898 C166.686,27.234 166.868,28.191 167.1,28.657 C167.514,28.864 167.669,28.786 167.902,29.2 C167.824,29.381 168.109,29.458 167.462,29.458 C166.816,29.458 164.204,26.898 164.773,26.148 C165.239,25.838 165.885,25.502 166.144,25.011 C165.109,22.606 163.584,20.408 162.653,18.003 C161.437,21.132 159.084,23.562 158.205,26.717 C158.205,28.113 160.299,26.511 160.299,27.752 C159.937,27.984 159.601,28.191 159.265,28.424 L159.265,28.553 C159.601,28.889 160.248,28.502 160.144,29.251 C159.886,29.381 159.265,29.458 158.567,29.458 C157.403,29.458 156.033,29.303 155.852,29.174 C155.826,28.682 155.826,28.295 155.826,27.803 C155.18,28.191 153.163,29.458 151.973,29.458 C151.74,29.458 151.534,29.355 151.378,29.251 C149.387,29.251 147.215,29.432 145.198,29.355 C145.172,29.407 145.172,29.432 145.146,29.458 L0.094,29.458 L0.094,0.678 Z M169.635,26.846 C170.1,26.872 170.979,26.821 171.471,26.691 C171.755,25.321 171.781,22.994 171.781,21.571 C170.565,22.787 166.557,25.605 169.635,26.846 Z M140.267,6.418 C140.319,6.548 140.733,5.746 140.733,5.746 C141.482,4.893 141.457,4.608 141.457,3.496 C141.431,3.47 141.405,3.444 141.405,3.444 C141.276,3.677 141.146,3.884 141.043,4.117 C140.319,4.97 139.595,4.867 140.267,6.418 Z M150.611,19.71 C150.818,19.89 151.645,16.115 151.154,16.115 C150.999,16.322 150.973,16.71 150.792,16.994 C148.568,17.874 150.611,13.167 148.749,13.167 C148.594,15.521 149.68,17.615 150.611,19.71 Z M158.029366,20.309 C158.185366,20.49 159.788366,14.026 159.788366,12.733 C158.909366,11.905 158.934366,11.879 158.495366,11 L158.314366,11 C157.849366,14.129 157.900366,17.129 158.029366,20.309 Z M147.404,23.873 C147.766,23.744 148.749,22.528 148.749,22.115 C148.128,20.977 147.378,20.201 147.042,19.011 L146.939,19.011 C146.758,19.632 146.396,20.382 146.396,21.106 C146.706,21.985 147.197,22.864 147.404,23.873 Z M152.059,23.95 L152.136,23.95 C152.343,23.407 152.498,21.959 152.369,21.494 L152.24,21.494 C152.007,21.752 151.774,22.037 151.542,22.321 C151.645,22.813 151.774,23.433 152.059,23.95 Z M141.405,24.493 C141.405,24.493 141.431,24.493 141.457,24.519 C142.491,23.821 141.819,22.709 141.095,21.985 C140.681,22.425 141.25,23.821 141.405,24.493 Z M142.517,27.209 C142.827,27.286 142.698,26.666 142.646,26.588 L142.465,26.588 C142.388,26.795 142.155,27.053 142.517,27.209 Z M148.904,27.26 C149.705,27.286 150.481,27.183 151.257,27.234 C151.283,27.183 151.309,27.131 151.335,27.105 C150.947,26.174 150.404,25.295 149.964,24.468 C149.628,24.39 146.732,26.64 148.904,27.26 Z M146.318,28.502 C146.525,28.502 146.525,28.502 146.603,28.476 C146.603,27.209 144.792,26.355 145.956,25.373 C146.06,24.881 145.258,23.433 145.025,23.33 C143.887,24.131 144.042,25.735 144.431,27.053 C144.637,27.209 146.292,27.545 145.284,28.14 L145.284,28.269 C145.516,28.424 145.982,28.476 146.318,28.502 Z M140.164,27.803 L140.267,27.803 C140.164,27.053 139.957,27.209 140.319,26.536 C140.19,25.864 139.905,25.243 139.698,24.675 L139.569,24.675 C138.871,26.252 138.793,26.691 140.164,27.803 Z" id="Combined-Shape" fill="#000000"></path>
                <path d="M134.159,26.852 C134.383,27.466 134.973,27.881 135.617,27.881 C136.474,27.881 137.174,27.168 137.174,26.294 C137.174,25.42 136.474,24.707 135.617,24.707 C134.76,24.707 134.061,25.42 134.061,26.294 C134.061,26.48 134.098,26.678 134.159,26.852" id="Fill-3" fill="#FFFFFF"></path>
                <path d="M134.329,26.783 C134.529,27.33 135.055,27.7 135.63,27.7 C136.394,27.7 137.017,27.064 137.017,26.285 C137.017,25.506 136.394,24.871 135.63,24.871 C134.866,24.871 134.242,25.506 134.242,26.285 C134.242,26.451 134.275,26.628 134.329,26.783" id="Fill-4" fill="#000000"></path>
                <path d="M194.622391,29.9759422 C194.102723,29.7591729 191.776386,27.5935747 192.624155,26.970494 C193.8286,24.8855298 194.895456,23.0162876 195.799319,20.8779165 C196.346506,18.4672748 196.483038,15.840911 196.674606,13.4040894 C196.647088,13.3768624 196.620628,13.3496353 196.620628,13.3224083 C196.018405,14.3790275 195.963369,15.7592298 195.799319,16.9237101 C194.81396,17.6818789 194.047687,17.3572486 194.239255,16.1655413 C195.580233,12.3746972 196.209974,8.42153806 198.371202,4.9008702 C198.836893,3.84529815 198.919447,3.24944449 198.781857,2.13837114 C198.781857,0.594806468 199.192511,0 200.260425,0 C201.32728,0 202.914862,1.78651379 201.245784,3.98038624 C199.630684,5.17209357 200.725057,5.93026238 201.16323,7.79845734 C201.299762,11.3191252 201.573885,11.6982096 204.749049,13.6742656 C205.5693,14.4868885 205.487804,15.3801454 204.09179,15.2995114 C203.598581,14.4596615 202.31264,13.1600931 201.354798,13.1600931 C201.354798,16.0576803 202.64074,18.656817 203.76369,21.392089 C204.146826,22.9084266 205.213681,27.2678972 206.828782,27.6742087 C207.239436,27.6742087 209.100083,27.3768055 209.100083,28.1883812 C208.278774,28.5140587 205.323754,29.9759422 204.776567,28.9203701 C204.557481,27.7558899 203.598581,26.6186366 203.078913,25.6436986 C202.148589,23.4225991 200.616043,21.4727229 199.54813,19.3877587 L199.38408,19.3877587 C198.426238,22.3942541 196.374024,24.6143064 194.704946,27.3495784 C194.348269,28.6491468 195.416183,28.6219197 195.826837,29.6513119 C195.552715,30.1110303 195.114542,29.9759422 194.622391,29.9759422" id="Fill-6" fill="#000000"></path>
                <path d="M184.959891,29.9686911 C184.716397,29.94152 184.472902,29.9143489 184.256578,29.9143489 C183.905443,29.5088723 184.203281,28.9414141 184.338091,28.5631086 C184.581586,27.0498867 184.365262,25.3746831 184.338091,23.8886324 C183.499967,23.8886324 182.095429,25.2127015 181.581268,25.8073308 C181.581268,26.617239 181.74325,27.5097055 181.797592,28.401127 C181.176837,29.0229274 179.527759,25.6714753 179.716912,25.2931698 C181.202963,24.4289195 185.418665,20.8621885 184.824036,19.0239583 C183.743462,16.6997832 182.635716,14.5375898 183.608651,11.9981359 C183.635822,11.4839748 183.690165,11.0252011 183.743462,10.5382111 C183.661948,10.5382111 183.608651,10.5382111 183.554309,10.5653823 C183.203175,11.4306777 182.1226,15.6735512 180.933342,14.7539136 C180.933342,14.4027793 181.311647,13.9711766 181.527971,13.6461683 C181.959574,10.8088772 183.121661,8.37706273 183.690165,5.62023994 C184.283749,4.43098128 184.743568,3.37757819 184.878378,2.10785124 C185.149044,0.783782067 185.932826,0 186.635095,0 C187.284067,0 187.851525,0.593584285 188.013506,1.97199568 C187.931993,2.89058826 187.904822,3.53955981 186.931887,3.78305478 C185.716502,4.75598958 187.851525,6.64751697 187.851525,7.97158614 C187.60803,8.45753102 187.391706,8.94452095 187.175382,9.40329471 C187.175382,10.5653823 189.932205,12.4840808 189.932205,13.6733394 C189.013612,15.0517508 188.82446,13.4298445 188.446154,12.7547468 C187.959164,12.1872886 187.391706,11.5654882 186.742734,11.4035065 C186.527456,11.6470015 187.770011,18.672824 187.797183,19.6990559 C187.715669,21.0502962 187.715669,21.0774673 186.797077,21.9427627 C186.067637,23.0233369 185.229513,27.3205528 186.283961,28.670748 C186.527456,28.7794324 187.851525,29.3197196 187.986335,29.8338806 C187.635201,30.0230333 184.987063,30.0230333 184.959891,29.9686911" id="Fill-7" fill="#000000"></path>
                <path d="M56.21,26.562 C54.632,25.993 56.804,25.166 57.373,24.83 C57.994,24.313 58.563,23.64 58.64,22.813 L59.856,6.677 C59.778,6.056 59.7,5.694 59.338,5.255 C58.873,4.867 55.822,4.194 57.502,3.237 L74,3.237 C75.293,3.367 74.672,5.487 74.543,6.392 C74.466,7.142 74.414,7.918 74.362,8.668 C72.914,9.935 73.173,7.271 72.94,6.599 C71.725,4.556 67.07,4.712 65.26,5.435 L64.717,12.986 C65.855,13.452 68.932,13.245 70.044,11.667 C70.303,10.995 70.561,10.09 71.44,10.556 C71.57,11.176 71.673,19.089 70.096,18.029 C69.811,17.382 69.682,16.684 69.423,16.141 C68.415,14.874 65.027,14.227 64.174,15.727 L63.553,23.071 C63.915,26.355 69.759,24.157 71.518,23.045 C72.319,22.373 73.845,20.434 74.543,20.33 C75.733,21.106 73.509,24.804 72.63,25.579 C72.371,25.786 70.871,26.536 70.871,26.562 C66.062,26.562 60.993,26.666 56.21,26.562" id="Fill-8" fill="#FFFFFF"></path>
                <path d="M107.703,26.666 C103.359,26.64 98.989,26.614 94.644,26.614 C93.067,26.071 95.472,25.114 95.86,24.881 C96.377,24.468 96.584,24.235 96.816,23.614 L98.29,6.677 C97.98,4.556 97.023,5.229 95.653,4.35 C95.342,3.806 95.549,3.548 96.015,3.289 L112.719,3.289 C113.78,3.781 112.9,8.849 112.383,9.03 C111.297,9.03 111.633,8.228 111.582,7.323 C111.168,5.41 109.746,5.358 108.091,5.229 C107.289,5.203 103.953,4.789 103.488,5.901 C103.307,8.254 103.126,10.607 102.945,12.96 C104.264,13.917 107.367,13.09 108.427,11.874 C108.634,11.357 109.565,9.444 110.004,10.995 C109.927,13.116 109.668,15.339 109.487,17.512 C108.789,19.632 107.961,16.374 107.625,15.908 C106.565,15.055 103.126,14.331 102.634,15.805 C102.402,18.132 101.859,21.003 102.014,23.407 C102.557,25.915 107.367,24.468 109.048,23.717 C110.547,22.735 111.504,21.701 112.693,20.382 C114.607,20.382 111.685,27.674 107.703,26.666" id="Fill-9" fill="#FFFFFF"></path>
                <path d="M124.606,26.872 C119.02,26.148 115.529,22.761 115.219,17.072 C115.219,8.849 120.132,3.341 128.304,3.057 C130.657,3.237 132.493,3.755 134.665,4.634 C135.415,4.815 135.415,4.815 135.415,4.789 C135.932,4.789 136.475,3.186 137.251,3.936 C137.302,6.16 137.354,8.409 137.432,10.633 C137.095,11.435 136.708,11.15 136.32,10.659 C135.337,8.306 133.656,6.108 131.407,5.048 C121.399,2.048 118.012,15.65 123.003,22.063 C123.934,22.942 124.606,23.459 125.873,23.976 C130.114,24.804 132.751,22.813 135.828,20.123 C136.708,19.632 136.889,20.201 136.527,21.003 C133.63,25.192 129.571,27.002 124.606,26.872" id="Fill-10" fill="#FFFFFF"></path>
                <path d="M84.206,26.872 C82.758,26.666 78.517,25.942 78.181,25.062 C77.922,23.304 77.431,21.183 77.431,19.451 C77.69,18.882 78,18.882 78.595,19.192 C79.655,21.856 80.844,24.261 83.818,25.166 C85.37,25.373 86.662,25.295 88.059,24.545 C94.032,19.141 83.973,17.227 80.974,15.339 C77.043,12.029 78.232,4.505 82.965,3.444 C83.559,3.134 84.154,3.186 84.749,3.057 C85.654,2.85 90.851,4.194 91.705,4.298 C93.696,3.367 93.282,4.453 93.231,6.392 C93.231,7.375 93.489,9.237 93.231,10.193 C92.015,11.719 91.395,8.435 91.188,7.918 C89.326,5.048 85.473,3.134 82.732,5.875 C80.25,10.349 85.395,11.305 88.757,12.676 C92.481,14.357 93.593,16.296 93.049,20.434 C92.093,24.726 88.369,27.002 84.206,26.872" id="Fill-11" fill="#FFFFFF"></path>
                <path d="M33.023,26.614 C31.704,26.071 34.626,24.933 34.807,24.804 C35.919,23.381 34.936,19.244 32.971,18.83 C30.722,18.753 28.498,18.701 26.274,18.882 C24.826,19.632 22.912,23.33 24.257,24.597 C24.748,24.804 27.826,25.605 26.739,26.536 C20.068,26.536 17.999,26.924 18.697,25.735 C19.938,24.933 20.481,24.442 21.387,23.304 C25.421,16.943 28.782,10.064 32.635,3.626 C32.842,3.367 32.92,3.186 33.307,3.186 C33.462,3.341 33.592,3.548 33.747,3.832 C36.1,10.426 38.479,17.02 40.832,23.614 C41.427,24.881 41.789,25.217 43.211,25.295 C44.375,24.933 44.556,23.899 44.737,22.813 C45.176,17.641 45.797,12.469 46.133,7.349 C46.133,4.893 45.642,4.97 43.573,4.35 C43.056,4.117 43.237,3.341 43.703,3.237 L53.581,3.237 C55.158,3.858 52.158,4.944 51.589,5.617 C51.486,5.824 51.383,6.056 51.279,6.289 C50.788,11.874 50.297,17.434 49.805,23.045 C49.805,25.838 51.951,24.468 52.572,25.554 C52.675,26.433 51.589,26.691 50.219,26.691 L33.023,26.614" id="Fill-12" fill="#FFFFFF"></path>
                <path d="M28.368,16.969 C27.955,16.943 27.386,16.943 27.075,16.813 C27.075,16.063 30.385,10.478 30.437,10.426 C31.264,9.599 33.256,16.141 33.359,16.71 C33.204,17.15 29.067,16.969 28.368,16.969" id="Fill-13" fill="#000000"></path>
                <path d="M136.032,27.22 C135.914,27.252 135.795,27.274 135.655,27.274 C135.353,27.274 135.126,27.187 134.965,27.015 C134.792,26.842 134.716,26.627 134.716,26.335 C134.716,26.141 134.749,25.969 134.824,25.818 C134.9,25.667 135.008,25.548 135.159,25.462 C135.299,25.375 135.472,25.343 135.677,25.343 C135.795,25.343 135.914,25.354 136.011,25.397 C136.194,25.462 136.313,25.591 136.367,25.775 C136.378,25.828 136.334,25.872 136.302,25.915 C136.183,26.044 136.119,25.915 136.032,25.828 C135.87,25.656 135.882,25.699 135.623,25.667 C135.482,25.656 135.299,25.764 135.213,25.872 C135.126,25.98 135.083,26.131 135.083,26.325 C135.083,26.422 135.094,26.497 135.116,26.573 C135.137,26.648 135.169,26.702 135.213,26.756 C135.256,26.81 135.407,26.896 135.461,26.929 C135.525,26.95 135.623,26.961 135.698,26.961 C135.795,26.961 135.903,26.918 135.968,26.875 C136.13,26.778 136.108,26.745 136.205,26.67 C136.237,26.637 136.259,26.616 136.302,26.616 C136.367,26.616 136.399,26.627 136.431,26.681 C136.539,26.875 136.259,27.144 136.032,27.22" id="Fill-24" fill="#FFFFFF"></path>
            </g>
        </g>
    </g>
</svg>