<?xml version="1.0" encoding="UTF-8" standalone="no"?>
<svg
   xmlns:dc="http://purl.org/dc/elements/1.1/"
   xmlns:cc="http://creativecommons.org/ns#"
   xmlns:rdf="http://www.w3.org/1999/02/22-rdf-syntax-ns#"
   xmlns:svg="http://www.w3.org/2000/svg"
   xmlns="http://www.w3.org/2000/svg"
   xmlns:sodipodi="http://sodipodi.sourceforge.net/DTD/sodipodi-0.dtd"
   xmlns:inkscape="http://www.inkscape.org/namespaces/inkscape"
   width="111.98674mm"
   height="55.383541mm"
   viewBox="0 0 111.98674 55.383541"
   version="1.1"
   id="svg8"
   inkscape:version="1.0 (4035a4fb49, 2020-05-01)"
   sodipodi:docname="everis.svg">
  <defs
     id="defs2">
    <clipPath
       id="clipPath36"
       clipPathUnits="userSpaceOnUse">
      <path
         id="path34"
         d="M 0,800 H 800 V 0 H 0 Z" />
    </clipPath>
    <clipPath
       id="clipPath150"
       clipPathUnits="userSpaceOnUse">
      <path
         id="path148"
         d="M 0,800 H 800 V 0 H 0 Z" />
    </clipPath>
    <clipPath
       id="clipPath264"
       clipPathUnits="userSpaceOnUse">
      <path
         id="path262"
         d="M 0,800 H 800 V 0 H 0 Z" />
    </clipPath>
  </defs>
  <sodipodi:namedview
     fit-margin-bottom="0"
     fit-margin-right="0"
     fit-margin-left="0"
     fit-margin-top="0"
     id="base"
     pagecolor="#ffffff"
     bordercolor="#666666"
     borderopacity="1.0"
     inkscape:pageopacity="0.0"
     inkscape:pageshadow="2"
     inkscape:zoom="0.7"
     inkscape:cx="700.95569"
     inkscape:cy="354.1345"
     inkscape:document-units="mm"
     inkscape:current-layer="layer1"
     inkscape:document-rotation="0"
     showgrid="false"
     inkscape:window-width="1518"
     inkscape:window-height="900"
     inkscape:window-x="1986"
     inkscape:window-y="0"
     inkscape:window-maximized="0" />
  <metadata
     id="metadata5">
    <rdf:RDF>
      <cc:Work
         rdf:about="">
        <dc:format>image/svg+xml</dc:format>
        <dc:type
           rdf:resource="http://purl.org/dc/dcmitype/StillImage" />
        <dc:title></dc:title>
      </cc:Work>
    </rdf:RDF>
  </metadata>
  <g
     transform="translate(-0.62519663,-0.81684844)"
     inkscape:label="Layer 1"
     inkscape:groupmode="layer"
     id="layer1">
    <g
       id="g30"
       transform="matrix(0.35277777,0,0,-0.35277777,-59.080289,239.60627)">
      <g
         id="g32"
         clip-path="url(#clipPath36)">
        <g
           id="g38"
           transform="translate(486.0283,659.5415)">
          <path
             d="m 0,0 c 3.787,-36.038 -7.885,-152.43 -58.078,-113.358 -70.977,55.245 -125.201,-15.47 -138.348,28.712 -5.712,19.227 11.078,86.074 83.679,87.923 C -44.996,5.006 -3.79,36.038 0,0"
             style="fill:#9aae04;fill-opacity:1;fill-rule:evenodd;stroke:none"
             id="path40" />
        </g>
        <g
           id="g42"
           transform="translate(339.6333,627.3105)">
          <path
             d="m 0,0 c 0.687,-1.891 1.779,-3.411 3.305,-4.571 1.51,-1.157 3.498,-1.762 5.999,-1.801 1.539,0.047 3.061,0.524 4.562,1.437 1.462,0.887 2.696,1.924 3.684,3.111 l 0.228,0.269 1.403,-0.968 -0.209,-0.312 C 17.5,-4.982 15.7,-6.747 13.589,-8.115 c -2.173,-1.407 -4.637,-2.132 -7.386,-2.172 -2.677,0.028 -4.949,0.63 -6.772,1.829 -1.815,1.199 -3.171,2.815 -4.09,4.857 -0.909,2.039 -1.359,4.335 -1.371,6.885 0.032,2.588 0.626,4.956 1.796,7.1 1.162,2.143 2.752,3.866 4.787,5.158 2.03,1.295 4.346,1.958 6.946,1.994 3.44,-0.04 6.152,-1.063 8.084,-3.088 1.901,-1.994 2.889,-4.707 3.001,-8.104 L 18.595,5.939 H -0.977 C -0.997,3.818 -0.672,1.834 0,0 m 12.517,8.178 c -0.096,1.966 -0.566,3.614 -1.405,4.975 -0.836,1.36 -2.333,2.088 -4.526,2.15 C 4.339,15.223 2.581,14.464 1.275,13.033 0.016,11.644 -0.729,10.026 -0.943,8.178 Z"
             style="fill:#ffffff;fill-opacity:1;fill-rule:evenodd;stroke:none"
             id="path44" />
        </g>
        <g
           id="g46"
           transform="translate(386.7446,642.519)">
          <path
             d="M 0,0 -0.327,-0.043 C -0.954,-0.136 -1.55,-0.382 -2.128,-0.804 -2.701,-1.223 -3.224,-2.223 -3.667,-3.315 l -7.623,-21.631 -5.045,-0.053 -7.363,19.829 c -0.534,1.558 -1.141,2.735 -1.835,3.528 -0.674,0.785 -1.689,1.517 -3.006,1.612 L -28.888,0 v 1.874 c 0,0 11.826,-0.021 12.201,0 l 0.403,0.02 V 0 l -0.365,-0.03 c -1.121,-0.061 -1.827,-0.255 -2.178,-0.521 -0.359,-0.266 -0.528,-0.644 -0.505,-1.116 -0.008,-0.221 0.065,-0.593 0.232,-1.112 0.149,-0.454 5.16,-14.202 6.57,-18.062 1.363,3.809 6.176,17.195 6.328,17.722 0.183,0.603 0.261,1.132 0.249,1.57 0.012,0.394 -0.17,0.741 -0.623,1.028 -0.409,0.269 -1.145,0.45 -2.22,0.494 l -0.366,0.019 v 1.902 l 0.406,-0.02 c 0.373,-0.021 8.756,0 8.756,0 z"
             style="fill:#ffffff;fill-opacity:1;fill-rule:evenodd;stroke:none"
             id="path48" />
        </g>
        <g
           id="g50"
           transform="translate(392.6182,627.3105)">
          <path
             d="m 0,0 c 0.684,-1.891 1.789,-3.411 3.313,-4.571 1.514,-1.157 3.499,-1.762 5.996,-1.801 1.544,0.047 3.059,0.524 4.561,1.437 1.473,0.887 2.697,1.924 3.692,3.111 l 0.214,0.269 1.416,-0.968 -0.214,-0.312 c -1.478,-2.147 -3.27,-3.912 -5.383,-5.28 -2.173,-1.407 -4.631,-2.132 -7.382,-2.172 -2.685,0.028 -4.947,0.63 -6.775,1.829 -1.811,1.199 -3.173,2.815 -4.089,4.857 -0.906,2.039 -1.359,4.335 -1.359,6.885 0.017,2.588 0.613,4.956 1.779,7.1 1.167,2.143 2.758,3.866 4.79,5.158 2.03,1.295 4.352,1.958 6.945,1.994 3.448,-0.04 6.152,-1.063 8.087,-3.088 1.903,-1.994 2.892,-4.707 3.006,-8.104 l 0.01,-0.405 H -0.968 C -0.988,3.818 -0.664,1.834 0,0 m 12.524,8.178 c -0.096,1.966 -0.569,3.614 -1.405,4.975 -0.845,1.36 -2.339,2.088 -4.527,2.15 C 4.345,15.223 2.587,14.464 1.284,13.033 0.017,11.644 -0.719,10.026 -0.935,8.178 Z"
             style="fill:#ffffff;fill-opacity:1;fill-rule:evenodd;stroke:none"
             id="path52" />
        </g>
        <g
           id="g54"
           transform="translate(426.3066,643.1113)">
          <path
             d="M 0,0 C 1.718,1.098 3.626,1.68 5.717,1.735 6.175,1.722 6.742,1.632 7.419,1.453 8.041,1.293 8.576,1.111 9.021,0.922 L 9.262,0.813 9.256,-4.649 H 5.482 L 5.423,-4.335 C 5.298,-3.669 5.062,-3.034 4.713,-2.432 4.364,-1.84 3.823,-1.533 3.057,-1.516 1.675,-1.588 0.37,-2.079 -0.854,-3 -2.065,-3.907 -3.146,-4.838 -4.104,-5.793 L -4.149,-21.03 c -0.026,-0.768 0.082,-1.329 0.287,-1.704 0.185,-0.347 0.612,-0.624 1.353,-0.787 0.714,-0.147 1.823,-0.228 3.328,-0.222 H 1.2 l -0.005,-1.884 h -15.366 v 1.884 h 0.396 c 1.956,-0.014 3.124,0.183 3.591,0.534 0.47,0.341 0.707,1.036 0.639,2.184 v 16.914 c 0.068,1.133 -0.169,1.829 -0.639,2.174 -0.467,0.344 -1.635,0.55 -3.591,0.541 L -14.171,-1.4 v 1.874 l 0.363,0.029 c 1.554,0.134 3.043,0.277 4.503,0.441 1.427,0.161 2.779,0.412 4.071,0.736 l 0.436,0.112 0.489,-5.301 C -3.005,-2.18 -1.57,-1.009 0,0"
             style="fill:#ffffff;fill-opacity:1;fill-rule:evenodd;stroke:none"
             id="path56" />
        </g>
        <g
           id="g58"
           transform="translate(458.1787,624.9316)">
          <path
             d="m 0,0 c 0.365,-2.122 1.164,-3.574 2.349,-4.41 1.229,-0.867 2.931,-1.297 5.13,-1.268 0.848,0 1.71,0.143 2.59,0.414 0.883,0.276 1.611,0.712 2.205,1.307 0.58,0.576 0.886,1.325 0.907,2.296 -0.039,1.145 -0.548,2.079 -1.543,2.816 C 10.608,1.921 9.32,2.601 7.783,3.206 6.228,3.819 4.672,4.486 3.116,5.221 1.547,5.955 0.222,6.889 -0.859,8.034 c -1.077,1.163 -1.642,2.674 -1.689,4.514 0.042,1.695 0.578,3.102 1.609,4.203 1.01,1.088 2.27,1.889 3.779,2.403 1.484,0.515 2.977,0.768 4.47,0.768 1.466,-0.025 2.921,-0.22 4.37,-0.609 1.406,-0.369 2.773,-0.793 4.105,-1.283 l 0.248,-0.092 v -5.065 h -2.648 l -0.063,0.307 c -0.318,1.497 -1.02,2.659 -2.094,3.499 -1.12,0.879 -2.495,1.329 -4.142,1.347 C 5.787,18.03 4.619,17.702 3.566,17.049 2.56,16.414 2.01,15.432 1.937,14.068 1.982,13.147 2.485,12.336 3.492,11.627 4.519,10.9 5.811,10.215 7.347,9.565 8.909,8.907 10.463,8.204 12.021,7.44 13.583,6.671 14.906,5.746 15.969,4.665 17.061,3.563 17.625,2.2 17.67,0.599 17.639,-1.332 17.165,-2.943 16.222,-4.211 15.288,-5.474 14.057,-6.402 12.54,-7.005 11.017,-7.617 9.365,-7.908 7.589,-7.904 5.717,-7.888 3.813,-7.652 1.889,-7.181 0,-6.723 -1.586,-6.126 -2.859,-5.393 l -0.198,5.708 3,0.009 z"
             style="fill:#ffffff;fill-opacity:1;fill-rule:evenodd;stroke:none"
             id="path60" />
        </g>
        <g
           id="g62"
           transform="translate(447.9834,651.6401)">
          <path
             d="m 0,0 c -0.648,-0.662 -1.486,-0.996 -2.493,-1.021 -0.997,0.025 -1.83,0.359 -2.479,1.021 -0.649,0.657 -0.983,1.492 -1.003,2.465 0.02,0.977 0.354,1.803 1.003,2.461 0.649,0.661 1.482,0.991 2.479,1.018 C -1.486,5.917 -0.648,5.587 0,4.926 0.64,4.268 0.978,3.442 0.993,2.465 0.978,1.492 0.64,0.657 0,0"
             style="fill:#ffffff;fill-opacity:1;fill-rule:evenodd;stroke:none"
             id="path64" />
        </g>
        <g
           id="g66"
           transform="translate(438.4004,641.8271)">
          <path
             d="m 0,0 -0.39,-0.004 v 1.885 l 0.361,0.025 c 3.208,0.224 6.385,0.586 9.541,1.08 l 0.453,0.067 c 0,0 -0.117,-18.2 -0.117,-20.944 -0.061,-1.938 0.188,-3.121 0.663,-3.663 0.459,-0.512 1.546,-0.835 3.364,-0.899 l 0.374,-0.015 v -1.867 H -0.51 l 0.007,1.867 0.374,0.015 c 2.089,0.064 3.341,0.387 3.861,0.906 0.525,0.539 0.798,1.724 0.729,3.656 V -3.562 C 4.52,-1.979 4.232,-1.033 3.702,-0.617 3.164,-0.202 1.96,0.031 0,0"
             style="fill:#ffffff;fill-opacity:1;fill-rule:evenodd;stroke:none"
             id="path68" />
        </g>
        <g
           id="g70"
           transform="translate(174.1089,529.0449)">
          <path
             d="m 0,0 c -1.955,0 -3.216,-0.529 -3.216,-1.772 0,-1.159 0.869,-1.595 2.033,-1.595 1.776,0 2.68,1.279 2.72,2.777 V 0 Z m -4.453,3.605 c 0.949,0.96 2.327,1.416 3.666,1.416 2.72,0 3.858,-1.299 3.858,-3.898 v -3.955 c 0,-0.535 0.056,-1.125 0.134,-1.595 H 1.735 C 1.63,-4.017 1.63,-3.447 1.63,-3.047 H 1.595 C 0.986,-3.992 -0.04,-4.66 -1.439,-4.66 c -1.871,0 -3.426,0.941 -3.426,2.733 0,3.05 3.539,3.223 5.811,3.223 h 0.591 v 0.281 c 0,1.337 -0.849,2.028 -2.288,2.028 -0.983,0 -2.009,-0.338 -2.735,-1.003 z"
             style="fill:#848483;fill-opacity:1;fill-rule:nonzero;stroke:none"
             id="path72" />
        </g>
        <g
           id="g74"
           transform="translate(179.9961,531.647)">
          <path
             d="m 0,0 c 0,0.841 -0.076,1.574 -0.076,2.183 h 1.453 c 0,-0.491 0.044,-1.003 0.044,-1.518 h 0.035 c 0.416,0.909 1.562,1.754 3.073,1.754 2.424,0 3.506,-1.532 3.506,-3.759 v -5.689 h -1.54 v 5.532 c 0,1.529 -0.663,2.5 -2.1,2.5 -1.991,0 -2.856,-1.441 -2.856,-3.549 V -7.029 H 0 Z"
             style="fill:#848483;fill-opacity:1;fill-rule:nonzero;stroke:none"
             id="path76" />
        </g>
        <g
           id="g78"
           transform="translate(196.022,538.5557)">
          <path
             d="m 0,0 h 4.182 l 5.928,-9.691 h 0.037 V 0 h 3.071 v -13.938 h -4.02 l -6.085,9.925 h -0.04 v -9.925 H 0 Z"
             style="fill:#848483;fill-opacity:1;fill-rule:nonzero;stroke:none"
             id="path80" />
        </g>
        <g
           id="g82"
           transform="translate(214.6304,535.8394)">
          <path
             d="M 0,0 H -3.972 V 2.716 H 7.056 V 0 H 3.076 V -11.222 H 0 Z"
             style="fill:#848483;fill-opacity:1;fill-rule:nonzero;stroke:none"
             id="path84" />
        </g>
        <g
           id="g86"
           transform="translate(225.8037,535.8394)">
          <path
             d="M 0,0 H -3.979 V 2.716 H 7.044 V 0 H 3.071 V -11.222 H 0 Z"
             style="fill:#848483;fill-opacity:1;fill-rule:nonzero;stroke:none"
             id="path88" />
        </g>
        <g
           id="g90"
           transform="translate(243.0322,527.4497)">
          <path
             d="m 0,0 h 1.59 c 2.859,0 5.009,1.089 5.009,4.252 0,2.736 -2.188,4.019 -4.789,4.019 H 0 Z m -3.075,11.106 h 4.607 c 4.493,0 8.252,-1.912 8.252,-7.003 0,-4.51 -3.681,-6.935 -7.834,-6.935 h -5.025 z"
             style="fill:#848483;fill-opacity:1;fill-rule:nonzero;stroke:none"
             id="path92" />
        </g>
        <g
           id="g94"
           transform="translate(260.5425,534.5015)">
          <path
             d="M 0,0 -1.698,-4.334 H 1.71 Z m -1.186,4.054 h 2.54 L 7.42,-9.884 H 3.956 L 2.75,-6.93 h -5.41 l -1.165,-2.954 h -3.38 z"
             style="fill:#848483;fill-opacity:1;fill-rule:nonzero;stroke:none"
             id="path96" />
        </g>
        <g
           id="g98"
           transform="translate(270.1138,535.8394)">
          <path
             d="M 0,0 H -3.978 V 2.716 H 7.049 V 0 H 3.073 V -11.222 H 0 Z"
             style="fill:#848483;fill-opacity:1;fill-rule:nonzero;stroke:none"
             id="path100" />
        </g>
        <g
           id="g102"
           transform="translate(282.4292,534.5015)">
          <path
             d="M 0,0 -1.696,-4.334 H 1.709 Z M -1.184,4.054 H 1.359 L 7.421,-9.884 H 3.953 L 2.755,-6.93 H -2.66 l -1.161,-2.954 h -3.386 z"
             style="fill:#848483;fill-opacity:1;fill-rule:nonzero;stroke:none"
             id="path104" />
        </g>
        <g
           id="g106"
           transform="translate(314.3896,525.7998)">
          <path
             d="M 0,0 C 1.993,0 3.272,1.487 3.272,3.423 3.272,5.352 1.993,6.85 0,6.85 -1.985,6.85 -3.259,5.352 -3.259,3.423 -3.259,1.487 -1.985,0 0,0 m 0,8.266 c 2.837,0 4.921,-1.971 4.921,-4.843 0,-2.873 -2.084,-4.838 -4.921,-4.838 -2.828,0 -4.919,1.965 -4.919,4.838 0,2.872 2.091,4.843 4.919,4.843"
             style="fill:#848483;fill-opacity:1;fill-rule:nonzero;stroke:none"
             id="path108" />
        </g>
        <g
           id="g110"
           transform="translate(321.562,531.647)">
          <path
             d="m 0,0 c 0,0.841 -0.077,1.574 -0.077,2.183 h 1.458 c 0,-0.491 0.035,-1.003 0.035,-1.518 h 0.039 c 0.418,0.909 1.558,1.754 3.072,1.754 1.99,0 2.62,-1.116 2.915,-1.754 0.666,1.087 1.521,1.754 2.912,1.754 2.637,0 3.505,-1.468 3.505,-3.859 v -5.589 h -1.534 v 5.511 c 0,1.284 -0.453,2.521 -2.242,2.521 -1.304,0 -2.384,-1.063 -2.384,-2.718 V -7.029 H 6.164 v 5.217 c 0,2.03 -0.52,2.815 -1.771,2.815 -1.989,0 -2.857,-1.441 -2.857,-3.549 V -7.029 H 0 Z"
             style="fill:#848483;fill-opacity:1;fill-rule:nonzero;stroke:none"
             id="path112" />
        </g>
        <g
           id="g114"
           transform="translate(342.5576,525.7998)">
          <path
             d="M 0,0 C 1.982,0 3.264,1.487 3.264,3.423 3.264,5.352 1.982,6.85 0,6.85 -1.983,6.85 -3.279,5.352 -3.279,3.423 -3.279,1.487 -1.983,0 0,0 m -4.804,8.03 h 1.525 V 6.688 h 0.045 c 0.844,0.987 1.971,1.578 3.306,1.578 2.9,0 4.849,-2.042 4.849,-4.843 0,-2.757 -2.023,-4.838 -4.605,-4.838 -1.664,0 -2.977,0.819 -3.55,1.866 h -0.045 v -6.123 h -1.525 z"
             style="fill:#848483;fill-opacity:1;fill-rule:nonzero;stroke:none"
             id="path116" />
        </g>
        <g
           id="g118"
           transform="translate(353.9404,529.0449)">
          <path
             d="m 0,0 c -1.948,0 -3.213,-0.529 -3.213,-1.772 0,-1.159 0.864,-1.595 2.028,-1.595 1.772,0 2.685,1.279 2.716,2.777 V 0 Z m -4.451,3.605 c 0.941,0.96 2.317,1.416 3.661,1.416 2.718,0 3.854,-1.299 3.854,-3.898 v -3.955 c 0,-0.535 0.062,-1.125 0.135,-1.595 H 1.728 c -0.102,0.41 -0.102,0.98 -0.102,1.38 H 1.59 C 0.978,-3.992 -0.042,-4.66 -1.438,-4.66 c -1.875,0 -3.431,0.941 -3.431,2.733 0,3.05 3.545,3.223 5.802,3.223 h 0.598 v 0.281 c 0,1.337 -0.845,2.028 -2.287,2.028 -0.973,0 -2.001,-0.338 -2.737,-1.003 z"
             style="fill:#848483;fill-opacity:1;fill-rule:nonzero;stroke:none"
             id="path120" />
        </g>
        <g
           id="g122"
           transform="translate(359.5762,531.647)">
          <path
             d="m 0,0 c 0,0.841 -0.088,1.574 -0.088,2.183 h 1.457 c 0,-0.491 0.045,-1.003 0.045,-1.518 h 0.034 c 0.412,0.909 1.561,1.754 3.073,1.754 2.421,0 3.507,-1.532 3.507,-3.759 V -7.029 H 6.489 v 5.532 c 0,1.529 -0.668,2.5 -2.105,2.5 -1.988,0 -2.861,-1.441 -2.861,-3.549 V -7.029 H 0 Z"
             style="fill:#848483;fill-opacity:1;fill-rule:nonzero;stroke:none"
             id="path124" />
        </g>
        <g
           id="g126"
           transform="translate(373.77,522.5137)">
          <path
             d="m 0,0 c -0.607,-1.56 -1.226,-2.623 -3.073,-2.623 -0.435,0 -0.969,0.036 -1.382,0.237 l 0.197,1.338 c 0.322,-0.118 0.656,-0.16 1.083,-0.16 1.01,0 1.385,0.615 1.718,1.517 l 0.624,1.732 -3.815,9.275 h 1.793 L 0,4.094 h 0.033 l 2.738,7.222 H 4.45 Z"
             style="fill:#848483;fill-opacity:1;fill-rule:nonzero;stroke:none"
             id="path128" />
        </g>
        <g
           id="g130"
           transform="translate(306.4956,535.7344)">
          <path
             d="m 0,0 c -0.82,1.115 -2.133,1.684 -3.464,1.684 -3.09,0 -5.283,-2.721 -5.283,-5.754 0,-3.21 2.173,-5.754 5.283,-5.754 1.685,0 3.033,0.684 4.013,1.935 l 1.234,-1.035 c -1.234,-1.666 -3.034,-2.426 -5.247,-2.426 -3.971,0 -7.047,3.073 -7.047,7.28 0,4.07 2.937,7.28 7.047,7.28 1.88,0 3.719,-0.645 4.894,-2.172 z"
             style="fill:#848483;fill-opacity:1;fill-rule:nonzero;stroke:none"
             id="path132" />
        </g>
      </g>
    </g>
  </g>
</svg>
