<?xml version="1.0" standalone="no"?>
<!DOCTYPE svg PUBLIC "-//W3C//DTD SVG 20010904//EN"
 "http://www.w3.org/TR/2001/REC-SVG-20010904/DTD/svg10.dtd">
<svg version="1.0" xmlns="http://www.w3.org/2000/svg"
 width="102.000000pt" height="108.000000pt" viewBox="0 0 102.000000 108.000000"
 preserveAspectRatio="xMidYMid meet">

<g transform="translate(0.000000,108.000000) scale(0.100000,-0.100000)"
fill="#000000" stroke="none">
<path d="M374 865 c-7 -19 -14 -65 -14 -102 0 -37 -11 -117 -25 -178 -31 -133
-61 -306 -70 -397 -6 -67 -6 -67 21 -74 36 -9 51 12 59 85 11 115 52 335 72
391 3 8 15 -34 28 -95 12 -60 34 -150 48 -200 14 -50 30 -109 37 -132 9 -35
15 -43 34 -43 48 0 48 16 0 203 -24 98 -58 252 -74 343 -17 91 -37 181 -45
200 -19 47 -51 46 -71 -1z"/>
<path d="M771 863 c-6 -21 -11 -52 -11 -70 0 -31 -51 -298 -68 -358 -9 -28
-10 -27 -21 30 -19 98 -40 183 -74 305 -31 109 -34 115 -60 118 -17 2 -29 -2
-33 -12 -3 -9 17 -109 44 -223 28 -115 60 -264 72 -332 25 -145 39 -190 62
-205 38 -24 67 46 68 166 0 32 13 117 30 190 16 73 34 174 40 223 6 50 15 109
19 132 9 49 -2 73 -34 73 -19 0 -26 -7 -34 -37z"/>
</g>
</svg>
